<?xml version="1.0" encoding="UTF-8"?>
<svg version="1.1" viewBox="0 0 64 64" xmlns="http://www.w3.org/2000/svg">
	<path d="m20.581 14.293c0.21426-0.10599-0.99177-2.6686-1.3024-3.5743-3.1382-0.3244-0.64567-3.5089 0.19379-0.71246l0.7958 0.36693 2.0835-5.6026c-2.6164-2.8376 1.0823-4.3933 0.68455-0.33272l4.7896 3.5259 3.8968-3.7703c-1.3571-3.3443 2.8392-2.2004 0.82805 0.21047l1.8196 7.5937c1.6665-6.7048 4.2772 0.06134 0 0 10.298-0.31899 15.458 6.7008 17.998 12.329 1.5673-1.1256 5.399-4.0268 6.7558-2.7818 3.0945 2.8393-2.3933 15.481-2.3933 15.481l-0.20994 3.6034c0.64273-0.43296 3.9957-1.6371 5.4794-2.3812-0.81371 3.0893-1.981 6.9291-6.3413 12.492-5.3513 6.8266-12.59 10.501-20.091 11.178-7.3199 0.66089-18.996-2.4511-24.275-12.574-1.113-2.1344-2.5321-6.8088-2.5321-6.8088-0.69303-0.28732-2.5865-1.4781-3.6519-2.5432-8.0357-8.0334 1.7479-7.0971 3.9547-5.5025 0.69987-8.041 2.4908-15.741 11.517-20.195z" fill="#fff" stroke="#000" stroke-linecap="round" stroke-linejoin="round" stroke-width="4"/>
</svg>
