<?xml version="1.0" encoding="UTF-8"?>
<svg version="1.1" viewBox="0 0 64 64" xmlns="http://www.w3.org/2000/svg">
	<rect x="8" y="8" width="48" height="48" fill="#ff0" stroke="#ff0" stroke-linecap="round" stroke-linejoin="round" stroke-width="16"/>
	<path d="m22.103 16.65c0.18569-0.09187-0.85955-2.3128-1.1288-3.0978-2.7199-0.28114-0.55959-3.041 0.16795-0.61747l0.6897 0.31801 1.8057-4.8556c-2.2676-2.4593 0.93798-3.8076 0.59329-0.28836l4.151 3.0558 3.3773-3.2676c-1.1762-2.8984 2.4607-1.907 0.71766 0.18241l1.577 6.5812c1.4443-5.8109 3.707 0.05316 0 0 8.925-0.27646 13.397 5.8074 15.599 10.685 1.3583-0.97548 4.6793-3.4899 5.8552-2.4109 2.6819 2.4608-2.0743 13.417-2.0743 13.417l-0.18195 3.123c0.55704-0.37524 3.463-1.4188 4.7489-2.0637-0.70523 2.6774-1.7169 6.0053-5.4959 10.826-4.6379 5.9164-10.912 9.1005-17.412 9.6873-6.344 0.57278-16.463-2.1243-21.039-10.897-0.96464-1.8498-2.1945-5.9009-2.1945-5.9009-0.60064-0.24901-2.2417-1.281-3.165-2.2041-6.9644-6.9622 1.5149-6.1508 3.4275-4.7688 0.60656-6.9688 2.1588-13.642 9.9818-17.502z" fill="#fff" stroke="#000" stroke-linecap="round" stroke-linejoin="round" stroke-width="4"/>
</svg>
