<?xml version="1.0" encoding="UTF-8"?>
<svg width="64" height="64" version="1.1" viewBox="0 0 64 64" xmlns="http://www.w3.org/2000/svg">
	<g stroke-linejoin="round">
		<rect x="8" y="8" width="48" height="48" fill="#ff0" stroke="#ff0" stroke-miterlimit="0" stroke-width="16"/>
		<path d="m22.48 18.518c0.17865-0.08074-0.292-1.381-0.55103-2.0709-2.6167-0.2471-0.53837-2.6728 0.16158-0.5427l0.66355 0.2795 1.2023-4.9194c-2.1816-2.1615 0.90241-3.3465 0.57079-0.25344l3.9936 2.6858 3.2492-2.8719c-1.1316-2.5474 2.3674-1.6761 0.69044 0.16032l1.5172 5.7843c1.5322-4.1622 2.2112 0.07931 0 0 8.5865-0.24298 12.889 5.1042 15.007 9.3911 1.3068-0.85736 4.5018-3.0673 5.6331-2.119 2.5802 2.1628-1.9956 11.792-1.9956 11.792l-0.17505 2.7448c0.53592-0.3298 3.3317-1.247 4.5688-1.8138-0.67848 2.3532-1.6518 5.2781-5.2875 9.5151-4.462 5.2-10.498 7.9985-16.752 8.5143-6.1034 0.50342-15.839-1.8671-20.241-9.5779-0.92806-1.6258-2.1113-5.1864-2.1113-5.1864-0.57786-0.21886-2.1567-1.1259-3.045-1.9372-6.7003-6.1192 1.4574-5.406 3.2975-4.1914 0.58356-6.125 2.0769-11.99 9.6032-15.383z" fill="#fff" stroke="#000" stroke-linecap="round" stroke-width="2"/>
	</g>
</svg>
